<?xml version="1.0" standalone="no"?>
<!DOCTYPE svg PUBLIC "-//W3C//DTD SVG 20010904//EN"
 "http://www.w3.org/TR/2001/REC-SVG-20010904/DTD/svg10.dtd">
<svg version="1.0" xmlns="http://www.w3.org/2000/svg"
 width="704.000000pt" height="704.000000pt" viewBox="0 0 704.000000 704.000000"
 preserveAspectRatio="xMidYMid meet">
<metadata>
Created by potrace 1.11, written by Peter Selinger 2001-2013
</metadata>
<g transform="translate(0.000000,704.000000) scale(0.100000,-0.100000)"
fill="#000000" stroke="none">
<path d="M4088 6195 c-9 -7 -309 -17 -598 -20 -389 -4 -500 -10 -511 -27 -8
-13 -8 -24 -14 -1193 -2 -451 -4 -822 -5 -825 -1 -3 -1 -48 0 -100 0 -52 1
-99 1 -105 -2 -114 -10 -1163 -9 -1195 3 -131 -3 -268 -17 -330 -3 -14 -7 -39
-10 -57 -2 -18 -9 -51 -16 -75 -7 -24 -13 -47 -15 -53 -12 -57 -85 -229 -127
-300 -39 -66 -72 -118 -81 -128 -6 -7 -31 -38 -56 -71 -66 -86 -222 -228 -332
-302 -53 -35 -105 -67 -115 -71 -10 -3 -25 -11 -33 -18 -26 -20 -159 -75 -183
-75 -70 0 -298 147 -437 281 -229 222 -422 610 -485 978 -3 19 -8 37 -10 41
-2 3 -6 26 -9 51 -4 24 -9 60 -12 79 -2 19 -7 53 -9 74 -5 58 0 57 -227 60
-54 0 -98 5 -98 9 0 5 -3 6 -8 3 -4 -2 -141 -6 -305 -7 -164 -2 -314 -5 -333
-7 l-34 -4 0 -145 c0 -96 5 -167 16 -215 9 -38 17 -75 19 -82 1 -6 4 -18 7
-26 3 -8 18 -55 33 -105 64 -208 180 -432 309 -594 39 -50 230 -231 243 -231
7 0 13 -4 13 -8 0 -4 14 -17 31 -27 178 -112 337 -179 504 -211 11 -2 32 -6
47 -9 96 -21 281 -29 723 -29 388 0 604 5 664 18 14 3 47 8 75 11 28 3 67 10
86 15 19 5 51 12 70 15 104 17 367 134 489 217 42 28 113 82 159 120 46 37 87
68 91 68 8 0 115 103 143 138 30 37 77 126 97 183 16 46 43 111 81 194 13 28
57 182 65 230 21 118 30 229 29 355 -1 77 2 140 7 140 4 0 14 -8 21 -19 7 -10
47 -55 88 -101 41 -46 83 -92 93 -104 16 -18 102 -114 172 -192 11 -12 43 -48
71 -81 29 -32 63 -70 75 -84 13 -14 56 -61 94 -104 39 -44 81 -91 95 -106 21
-23 85 -95 150 -169 8 -9 44 -50 80 -90 36 -40 73 -82 83 -94 10 -12 51 -57
90 -100 40 -44 80 -89 90 -100 17 -19 73 -83 169 -190 117 -132 112 -128 158
-135 75 -10 868 -7 879 4 10 10 7 14 -118 155 -32 36 -156 175 -276 310 -120
135 -247 278 -284 319 -36 41 -75 84 -86 96 -11 13 -36 40 -55 62 -19 21 -66
74 -105 118 -38 44 -77 86 -85 95 -8 9 -42 46 -75 84 -33 37 -69 78 -80 90
-11 12 -45 51 -75 85 -30 35 -68 77 -85 95 -16 18 -43 48 -60 67 -135 153
-182 206 -195 219 -8 8 -46 51 -85 95 -38 44 -76 87 -85 96 -8 9 -44 49 -80
89 -36 41 -77 86 -92 102 -15 15 -23 29 -18 30 6 0 31 2 58 3 280 12 383 19
567 39 41 5 111 18 140 26 17 5 42 11 57 14 43 7 198 57 258 83 104 45 290
149 310 174 3 3 12 10 21 15 50 28 160 131 235 219 108 127 208 303 258 455
89 270 96 535 21 820 -25 98 -141 343 -175 370 -4 3 -20 25 -37 50 -83 122
-278 281 -448 368 -125 63 -346 133 -463 148 -20 2 -48 6 -62 9 -14 3 -61 7
-105 10 -44 3 -105 8 -135 11 -51 6 -877 14 -882 9z m445 -98 c184 -57 339
-132 467 -228 78 -59 270 -254 270 -275 0 -3 11 -20 24 -37 42 -57 155 -287
141 -287 -2 0 2 -15 10 -32 16 -40 44 -172 52 -248 12 -107 5 -299 -13 -380
-3 -14 -7 -36 -10 -50 -69 -360 -320 -702 -669 -913 -104 -62 -359 -164 -452
-180 -15 -3 -52 -11 -81 -17 -67 -15 -271 -19 -275 -5 -4 11 0 218 5 278 2 21
0 43 -4 50 -4 6 -4 15 -1 21 8 12 8 108 0 129 -3 9 -2 17 4 17 6 0 8 4 5 9 -6
9 -7 56 -3 219 1 61 -2 112 -6 112 -5 0 -5 5 -1 12 9 14 8 103 -1 118 -3 5 -3
10 2 10 4 0 9 231 9 513 1 281 2 663 3 847 l1 335 233 0 c193 0 242 -3 290
-18z"/>
</g>
</svg>
