<svg width="103" height="144" viewBox="0 0 103 144" fill="none" xmlns="http://www.w3.org/2000/svg">
<path d="M51.049 144L9.30292 132.434L0 28.2994H102.223L92.9103 132.418L51.049 144Z" fill="#264DE4"/>
<path d="M84.9376 125.788L92.896 36.8139H51.1116V135.147L84.9376 125.788Z" fill="#2965F1"/>
<path d="M21.3267 75.436L22.4736 88.2076H51.1115V75.436H21.3267Z" fill="#EBEBEB"/>
<path d="M19.022 49.5858L20.1853 62.3576H51.1114V49.5858H51.0672H19.022Z" fill="#EBEBEB"/>
<path d="M51.1114 108.606L51.0553 108.62L36.8029 104.78L35.8918 94.5936H28.9663H23.0454L24.8383 114.647L51.0525 121.91L51.1114 121.893V108.606Z" fill="#EBEBEB"/>
<path d="M24.0576 0H39.5573V6.46875H30.5393V12.9375H39.5573V19.4062H24.0576V0Z" fill="black"/>
<path d="M42.6572 0H58.1569V5.625H49.1389V6.75H58.1569V19.6875H42.6572V13.7812H51.6752V12.6562H42.6572V0Z" fill="black"/>
<path d="M61.2568 0H76.7565V5.625H67.7385V6.75H76.7565V19.6875H61.2568V13.7812H70.2748V12.6562H61.2568V0Z" fill="black"/>
<path d="M80.8144 75.436L83.1247 49.5858H51.0674V62.3576H69.1L67.9356 75.436H51.0674V88.2076H66.8258L65.3404 104.772L51.0674 108.616V121.904L77.3025 114.647L77.495 112.489L80.5022 78.8656L80.8144 75.436Z" fill="white"/>
</svg>
