<svg width="17" height="17" viewBox="0 0 17 17" fill="none" xmlns="http://www.w3.org/2000/svg">
<path d="M15.1784 8.50001H10.9284V9.7143H13.8427C13.4177 11.5357 12.082 13.0536 10.3213 13.6607L3.33915 6.67858C4.06772 4.55358 6.132 3.03573 8.49986 3.03573C10.3213 3.03573 11.9606 3.94644 12.9927 5.34287L13.9034 4.55358C12.6891 2.9143 10.7463 1.82144 8.49986 1.82144C5.34272 1.82144 2.67129 4.06787 2.00343 7.04287L10.0177 15.0572C12.932 14.3286 15.1784 11.6572 15.1784 8.50001ZM1.82129 8.56073C1.82129 10.2607 2.48915 11.9 3.76415 13.175C5.03915 14.45 6.73915 15.1179 8.37843 15.1179L1.82129 8.56073Z" fill="white"/>
<path d="M8.5 0C3.825 0 0 3.825 0 8.5C0 13.175 3.825 17 8.5 17C13.175 17 17 13.175 17 8.5C17 3.825 13.175 0 8.5 0ZM3.76429 13.2357C2.48929 11.9607 1.82143 10.2607 1.82143 8.62143L8.43929 15.1786C6.73929 15.1179 5.03929 14.5107 3.76429 13.2357ZM9.95714 14.9964L2.00357 7.04286C2.67143 4.06786 5.34286 1.82143 8.5 1.82143C10.7464 1.82143 12.6893 2.91429 13.9036 4.55357L12.9929 5.34286C11.9607 3.94643 10.3214 3.03571 8.5 3.03571C6.13214 3.03571 4.12857 4.55357 3.33929 6.67857L10.3214 13.6607C12.0821 13.0536 13.4179 11.5357 13.8429 9.71429H10.9286V8.5H15.1786C15.1786 11.6571 12.9321 14.3286 9.95714 14.9964Z" fill="#663399"/>
</svg>
