<svg width="88" height="75" viewBox="0 0 88 75" fill="none" xmlns="http://www.w3.org/2000/svg">
<g clip-path="url(#clip0)">
<path d="M45.9839 4.47937L46.5739 4.37297L47.9012 4.25766C49.2905 4.13109 50.6828 4.08 52.08 4.07813L52.9157 4.03125H58.5201L59.2576 4.07813L60.7816 4.125L61.2732 4.16766L62.748 4.26141C63.7947 4.33125 64.86 4.43578 65.8944 4.61344L66.7301 4.80797L67.5167 4.965L67.8608 5.08172L68.6474 5.28516L69.0899 5.45203L70.4172 5.93016C71.4044 6.3525 72.3778 6.86109 73.2686 7.4475C74.154 8.03109 74.9249 8.63344 75.6839 9.36328C76.7556 10.3931 77.6813 11.572 78.4153 12.8438C79.3007 14.378 79.8956 16.0467 80.221 17.7656L80.3538 18.4261C80.9521 22.6528 80.02 26.9072 77.6101 30.5156L76.9769 31.3594C75.9327 32.7459 74.6166 34.0294 73.1703 35.0395C70.9536 36.5878 68.6744 37.5698 66.0418 38.2828L65.0095 38.4942L64.3704 38.6522C62.9584 38.9011 61.5214 39.0047 60.0933 39.098C58.6371 39.1927 57.1795 39.2813 55.7179 39.2813L57.8107 41.625L63.1202 47.5781L72.5523 58.1719L77.1096 63.2813L79.1552 65.5763L80.2987 66.8906C79.8597 67.0017 79.4202 67.0059 78.9713 67.0355L77.9881 67.0781L77.2015 67.125H71.6463L71.0563 67.08H70.3681L69.7781 67.0317C69.5348 67.0261 68.7944 66.9872 68.6066 66.8831C68.4601 66.8025 68.1725 66.4641 68.0535 66.3281L67.061 65.2031L63.6329 61.3594L59.8755 57.1406L52.9196 49.3589L49.7413 45.7969L48.4912 44.3906V54.75C48.1711 54.8475 48.269 55.0209 48.21 55.4531C48.1131 56.1628 48.0035 56.7319 47.796 57.4219C47.3467 58.9163 46.4677 60.2006 45.2465 61.2258C44.9658 61.4616 44.687 61.6964 44.3616 61.875V45.9375V37.9688L44.4599 37.2656V4.875L44.2141 4.82813V4.73438L45.9839 4.47937ZM52.3258 38.5313C52.8867 38.5303 53.2707 38.4202 53.8006 38.2988L54.7347 38.1023L56.2587 37.6284C60.8238 36.1589 64.7951 32.9269 66.9061 28.7813C67.5713 27.4744 68.0722 26.1234 68.3849 24.7031L68.6263 23.5781L68.7035 22.875L68.7811 22.3125L68.8278 20.5313L68.6661 18.5152L68.4606 17.5313C68.0432 15.5306 67.2674 13.6256 66.1063 11.9063C65.2376 10.6195 64.2106 9.53344 63.0076 8.52609C61.9437 7.635 60.5456 6.79219 59.2576 6.23297L56.8978 5.35594L55.5704 5.01375L55.2755 4.94344L54.0464 5.0175H53.3582L52.7682 5.0625H48.5895V38.5313H52.3258Z" fill="#86BA90" stroke="black" stroke-width="0.00333333"/>
<path d="M46.8473 4.47937L47.4235 4.37297C48.2 4.27078 50.1539 4.12641 50.9289 4.125L51.7452 4.07812H52.8016L53.6179 4.03125H59.092L59.8123 4.07812L61.3008 4.125L61.781 4.16766L63.2216 4.26141C64.1886 4.3275 65.3939 4.44891 66.3427 4.62234L67.111 4.80797L67.8793 4.965L68.2155 5.08172L68.9838 5.28516L69.4159 5.45203L70.7124 5.93016C72.2389 6.59906 73.7049 7.47984 74.9726 8.54859C75.9594 9.38109 76.963 10.4766 77.6909 11.5312C82.0817 17.8908 81.373 26.3902 76.4228 32.25C75.6482 33.1664 74.6547 34.0973 73.6895 34.8225C71.4773 36.4842 69.1115 37.5417 66.4388 38.2828L65.3824 38.5045L64.8542 38.6433C63.7863 38.8505 62.4398 38.978 61.3488 39.0511L59.9083 39.1448L59.3321 39.1875L57.9395 39.2344L57.1713 39.2812H50.6888L49.8725 39.2344L47.3755 39.098C46.6452 39.0492 45.6709 39.0394 44.9746 38.8594V38.7656L45.3098 38.6105L45.3588 38.25V36.8438V30.75V4.875L45.1187 4.82812V4.73438L46.8473 4.47937ZM53.0417 38.5312C53.5896 38.5303 53.9646 38.4202 54.4822 38.2987L55.3946 38.1023L56.8831 37.6284C61.3421 36.1589 65.221 32.9269 67.2829 28.7812C67.9326 27.4744 68.4219 26.1234 68.7273 24.7031L68.9631 23.5781L69.0385 22.875L69.1144 22.3125L69.16 20.5312L69.002 18.5152L68.8013 17.5312C68.3936 15.5306 67.6359 13.6256 66.5017 11.9062C65.6532 10.6195 64.6501 9.53344 63.4751 8.52609C62.436 7.635 61.0703 6.79219 59.8123 6.23297L57.5074 5.35594L56.2109 5.01375L55.9228 4.94344L54.7223 5.0175H54.0501L53.4738 5.0625H49.3923V38.5312H53.0417Z" fill="#FF331F" stroke="black" stroke-width="0.00333333"/>
</g>
<g clip-path="url(#clip1)">
<path d="M0.545514 46.3485L2.0184 46.2981L2.94578 46.2519H9.05553L9.71015 46.2963H10.3648L11.0194 46.3402L11.9468 46.3938C12.1339 46.4091 12.405 46.4197 12.4917 46.5861C12.5594 46.7146 12.5397 46.9397 12.5561 47.0839L12.6788 48.0084L12.8976 49.4412L13.3896 51.7061C14.2614 55.3211 16.0261 59.1307 18.7766 62.0135C19.9756 63.2703 21.3934 64.399 23.0212 65.249C23.384 65.4381 23.833 65.6886 24.2208 65.8222C24.4074 65.8864 24.5634 65.9507 24.7663 65.8948L25.1482 65.7339L25.6392 65.5555L26.5665 65.1067C27.8103 64.4725 28.766 63.8744 29.8374 63.0383C33.3882 60.2659 35.5828 56.6754 36.4736 52.6767C36.7071 51.6289 36.8189 50.771 36.8904 49.7056L36.9313 49.1639L36.8947 47.5461L36.832 46.8084C36.832 46.5755 36.9302 46.6564 36.94 46.2057V43.8022L37.0038 29.1499L37.0524 28.3179V19.8593V18.2878L37.1042 17.3172V7.24082L37.1495 6.5475V4.92974C37.1495 4.83868 37.1353 4.66674 37.2035 4.59371C37.3142 4.47584 37.8379 4.46151 38.0223 4.44071L38.6224 4.41714L39.6589 4.37508L40.5862 4.32886H46.8051L47.6234 4.37508L49.369 4.45458C49.5348 4.47168 49.9222 4.48 50.0471 4.56736C50.1556 4.64317 50.1327 4.82066 50.1235 4.92974V13.0185L50.0662 13.7119V22.6326V23.8806L50.0144 24.7126V30.4903V33.1712V35.0663L49.9571 35.7134V42.4618V45.8822L49.9145 46.5755V49.3488C49.9129 50.3245 49.7356 51.3909 49.5463 52.3532C48.5862 57.2319 45.5439 61.7242 40.6953 64.5663L39.8318 65.0115L38.5133 65.6664C37.6874 66.0163 36.7764 66.3597 35.8948 66.5946L34.9674 66.797L34.3674 66.9495L32.4581 67.2033L31.6398 67.3212L29.4578 67.4215L28.6395 67.4677H20.4568L19.6385 67.4215H19.1475L18.602 67.3794L17.8383 67.3369L16.3109 67.2236C15.3148 67.121 13.8282 66.7868 12.8741 66.5081L12.4377 66.3463C11.5589 66.0371 11.0123 65.8116 10.2006 65.3877C5.50805 62.9384 2.92886 58.9948 1.29941 54.6643C0.881005 53.5517 0.478416 52.2552 0.250391 51.1052C0.160927 50.6569 0.00109103 50.2228 0 49.7648V46.3906L0.545514 46.3485Z" fill="black" stroke="black" stroke-width="0.00333333"/>
</g>
<defs>
<clipPath id="clip0">
<rect x="4.44263" width="78.6585" height="75" fill="white"/>
</clipPath>
<clipPath id="clip1">
<rect y="0.261322" width="87.2822" height="73.9547" fill="white"/>
</clipPath>
</defs>
</svg>
