<svg width="283" height="253" viewBox="0 0 283 253" fill="none" xmlns="http://www.w3.org/2000/svg">
<path d="M282.218 126.642C282.218 107.947 258.806 90.2291 222.91 79.2418C231.193 42.6558 227.512 13.5481 211.29 4.229C207.551 2.04305 203.179 1.0076 198.404 1.0076V13.8357C201.05 13.8357 203.179 14.3534 204.962 15.3314C212.785 19.8183 216.179 36.9033 213.533 58.8779C212.901 64.2852 211.865 69.9802 210.599 75.7903C199.325 73.0291 187.014 70.9006 174.071 69.52C166.305 58.8779 158.252 49.2137 150.141 40.7575C168.894 23.3273 186.496 13.7782 198.462 13.7782V0.950073C182.642 0.950073 161.933 12.225 140.994 31.7835C120.055 12.3401 99.3459 1.18017 83.5265 1.18017V14.0083C95.4342 14.0083 113.094 23.4999 131.848 40.815C123.794 49.2712 115.741 58.8779 108.09 69.52C95.089 70.9006 82.7787 73.0291 71.5037 75.8478C70.1807 70.0953 69.2027 64.5153 68.5124 59.1655C65.8087 37.1909 69.1452 20.1059 76.9111 15.5615C78.6368 14.526 80.8803 14.0658 83.5265 14.0658V1.2377C78.6944 1.2377 74.3225 2.27315 70.5258 4.45911C54.3612 13.7782 50.7372 42.8284 59.0783 79.2993C23.2977 90.3441 0 108.004 0 126.642C0 145.338 23.4127 163.056 59.3084 174.043C51.0248 210.629 54.7064 239.737 70.9285 249.056C74.6676 251.242 79.0395 252.277 83.8716 252.277C99.691 252.277 120.4 241.002 141.339 221.444C162.278 240.887 182.987 252.047 198.807 252.047C203.639 252.047 208.011 251.012 211.808 248.826C227.972 239.507 231.596 210.457 223.255 173.986C258.921 162.998 282.218 145.281 282.218 126.642ZM207.321 88.2732C205.192 95.694 202.546 103.345 199.555 110.996C197.196 106.394 194.723 101.792 192.019 97.1896C189.373 92.5876 186.554 88.1006 183.735 83.7287C191.904 84.9368 199.785 86.4324 207.321 88.2732ZM180.974 149.537C176.487 157.303 171.885 164.667 167.111 171.512C158.539 172.26 149.853 172.663 141.109 172.663C132.423 172.663 123.737 172.26 115.223 171.57C110.448 164.724 105.789 157.418 101.302 149.71C96.9298 142.174 92.9606 134.523 89.3365 126.815C92.9031 119.107 96.9298 111.398 101.244 103.863C105.731 96.0966 110.333 88.7334 115.108 81.8879C123.679 81.1401 132.365 80.7374 141.109 80.7374C149.795 80.7374 158.482 81.1401 166.995 81.8304C171.77 88.6759 176.43 95.9816 180.917 103.69C185.288 111.226 189.258 118.877 192.882 126.585C189.258 134.293 185.288 142.002 180.974 149.537ZM199.555 142.059C202.661 149.768 205.307 157.476 207.493 164.954C199.957 166.795 192.019 168.348 183.793 169.556C186.612 165.127 189.43 160.582 192.076 155.923C194.723 151.321 197.196 146.661 199.555 142.059ZM141.224 203.439C135.874 197.916 130.525 191.761 125.232 185.03C130.409 185.261 135.702 185.433 141.052 185.433C146.459 185.433 151.809 185.318 157.044 185.03C151.866 191.761 146.517 197.916 141.224 203.439ZM98.4255 169.556C90.2569 168.348 82.376 166.853 74.8402 165.012C76.9686 157.591 79.6148 149.94 82.6061 142.289C84.9646 146.891 87.4382 151.493 90.1419 156.095C92.8456 160.697 95.6068 165.184 98.4255 169.556ZM140.937 49.8464C146.286 55.3688 151.636 61.524 156.929 68.2545C151.751 68.0244 146.459 67.8518 141.109 67.8518C135.702 67.8518 130.352 67.9669 125.117 68.2545C130.294 61.524 135.644 55.3688 140.937 49.8464ZM98.368 83.7287C95.5492 88.1582 92.7305 92.7027 90.0843 97.3622C87.4382 101.964 84.9646 106.566 82.6061 111.168C79.4997 103.46 76.8536 95.7515 74.6676 88.2732C82.2034 86.4899 90.1419 84.9368 98.368 83.7287ZM46.3077 155.75C25.9438 147.064 12.7706 135.674 12.7706 126.642C12.7706 117.611 25.9438 106.164 46.3077 97.5348C51.2549 95.4063 56.6623 93.508 62.2422 91.7247C65.5211 103 69.8355 114.735 75.1853 126.758C69.893 138.723 65.6362 150.4 62.4148 161.618C56.7198 159.834 51.3124 157.879 46.3077 155.75ZM77.2562 237.954C69.4328 233.467 66.0388 216.382 68.685 194.407C69.3178 189 70.3532 183.305 71.6188 177.495C82.8937 180.256 95.2041 182.384 108.147 183.765C115.913 194.407 123.967 204.071 132.078 212.527C113.325 229.958 95.7218 239.507 83.7566 239.507C81.168 239.449 78.982 238.932 77.2562 237.954ZM213.706 194.119C216.41 216.094 213.073 233.179 205.307 237.724C203.581 238.759 201.338 239.219 198.692 239.219C186.784 239.219 169.124 229.728 150.371 212.412C158.424 203.956 166.478 194.35 174.129 183.707C187.129 182.327 199.44 180.198 210.715 177.38C212.038 183.19 213.073 188.77 213.706 194.119ZM235.853 155.75C230.906 157.879 225.498 159.777 219.919 161.56C216.64 150.285 212.325 138.55 206.975 126.527C212.268 114.562 216.525 102.885 219.746 91.6672C225.441 93.4505 230.848 95.4063 235.911 97.5348C256.274 106.221 269.448 117.611 269.448 126.642C269.39 135.674 256.217 147.121 235.853 155.75Z" fill="#61DAFB"/>
<path d="M141.052 152.931C155.571 152.931 167.341 141.162 167.341 126.642C167.341 112.123 155.571 100.354 141.052 100.354C126.533 100.354 114.763 112.123 114.763 126.642C114.763 141.162 126.533 152.931 141.052 152.931Z" fill="#61DAFB"/>
</svg>
