<svg width="216" height="91" viewBox="0 0 216 91" fill="none" xmlns="http://www.w3.org/2000/svg">
<path fill-rule="evenodd" clip-rule="evenodd" d="M73.9495 18.6567L45.3125 1.6577C41.8945 -0.371302 37.6815 -0.371302 34.2635 1.6577L5.62652 18.6567C2.20952 20.6857 0.103516 24.4347 0.103516 28.4927V62.4907C0.103516 66.5477 2.20952 70.2987 5.62752 72.3277L34.2645 89.3237C35.9735 90.3387 37.8795 90.8447 39.7885 90.8447C41.6965 90.8447 43.6025 90.3387 45.3115 89.3237L73.9485 72.3277C77.3665 70.2987 79.4735 66.5477 79.4735 62.4907V28.4927C79.4735 24.4347 77.3665 20.6857 73.9495 18.6567Z" fill="#FEFEFE"/>
<path fill-rule="evenodd" clip-rule="evenodd" d="M35.2655 87.5832L6.62852 70.5872C3.82752 68.9242 2.08752 65.8222 2.08752 62.4902V28.4932C2.08752 25.1612 3.82752 22.0592 6.62752 20.3972L35.2655 3.3982C36.6385 2.5832 38.2025 2.1522 39.7885 2.1522C41.3735 2.1522 42.9375 2.5832 44.3115 3.3982L72.9485 20.3972C75.3085 21.7982 76.9005 24.2242 77.3485 26.9452C76.3985 24.9182 74.2565 24.3672 71.7605 25.8252L44.6685 42.5592C41.2905 44.5342 38.7995 46.7502 38.7975 50.8232V84.2062C38.7955 86.6452 39.7805 88.2252 41.2935 88.6832C40.7965 88.7692 40.2955 88.8292 39.7885 88.8292C38.2025 88.8292 36.6385 88.3982 35.2655 87.5832ZM73.9495 18.6562L45.3125 1.6582C43.6035 0.6432 41.6955 0.1362 39.7885 0.1362C37.8805 0.1362 35.9725 0.6432 34.2635 1.6582L5.62652 18.6562C2.20952 20.6852 0.103516 24.4352 0.103516 28.4932V62.4902C0.103516 66.5472 2.20952 70.2982 5.62752 72.3272L34.2645 89.3242C35.9745 90.3382 37.8805 90.8452 39.7885 90.8452C41.6965 90.8452 43.6025 90.3382 45.3115 89.3242L73.9495 72.3272C77.3675 70.2982 79.4735 66.5472 79.4735 62.4902V28.4932C79.4735 24.4352 77.3675 20.6852 73.9495 18.6562Z" fill="#3E474A"/>
<path fill-rule="evenodd" clip-rule="evenodd" d="M66.4427 65.7771L59.3117 70.0451C59.1227 70.1551 58.9837 70.2791 58.9827 70.5061V72.3721C58.9827 72.6001 59.1357 72.6951 59.3247 72.5841L66.5657 68.1831C66.7547 68.0731 66.7837 67.8621 66.7847 67.6351V65.9891C66.7847 65.7621 66.6317 65.6671 66.4427 65.7771Z" fill="#47B353"/>
<path fill-rule="evenodd" clip-rule="evenodd" d="M51.258 50.0704C51.489 49.9534 51.679 50.0974 51.682 50.3994L51.706 52.8664C52.739 52.4554 53.636 52.3454 54.449 52.5334C54.625 52.5804 54.703 52.8204 54.631 53.1054L54.088 55.2914C54.046 55.4564 53.953 55.6234 53.841 55.7274C53.794 55.7734 53.746 55.8094 53.698 55.8334C53.625 55.8704 53.553 55.8824 53.484 55.8684C53.113 55.7844 52.231 55.5914 50.843 56.2944C49.387 57.0314 48.878 58.2964 48.888 59.2354C48.9 60.3564 49.475 60.6964 51.461 60.7304C54.107 60.7744 55.25 61.9304 55.278 64.5954C55.305 67.2124 53.908 70.0224 51.771 71.7444L51.818 74.1864C51.821 74.4804 51.63 74.8174 51.399 74.9344L49.953 75.7674C49.721 75.8844 49.531 75.7404 49.528 75.4464L49.503 73.0444C48.264 73.5594 47.009 73.6834 46.207 73.3614C46.056 73.3024 45.991 73.0794 46.051 72.8254L46.575 70.6174C46.617 70.4434 46.709 70.2694 46.834 70.1584C46.878 70.1154 46.924 70.0824 46.97 70.0594C47.053 70.0174 47.134 70.0084 47.203 70.0344C48.067 70.3254 49.172 70.1894 50.235 69.6514C51.585 68.9684 52.488 67.5914 52.474 66.2234C52.461 64.9824 51.789 64.4664 50.155 64.4544C48.075 64.4604 46.136 64.0504 46.104 60.9884C46.078 58.4674 47.389 55.8444 49.464 54.1854L49.438 51.7204C49.435 51.4174 49.62 51.0844 49.858 50.9644L51.258 50.0704Z" fill="#FEFEFE"/>
<path fill-rule="evenodd" clip-rule="evenodd" d="M98.6338 48.0456H104.945C105.836 48.0736 106.67 48.2176 107.425 48.4716C108.144 48.7116 108.776 49.0586 109.305 49.5016C109.822 49.9356 110.219 50.4536 110.515 51.0806C110.805 51.6996 110.946 52.4336 110.931 53.2886C110.931 54.0956 110.772 54.8146 110.457 55.4266C110.132 56.0586 109.705 56.5766 109.156 57.0086C108.583 57.4576 107.91 57.8146 107.157 58.0696C106.389 58.3286 105.564 58.4686 104.73 58.4816H98.6338V48.0456ZM109.475 38.7466C109.146 39.3056 108.728 39.7636 108.197 40.1456C107.646 40.5406 107.004 40.8496 106.285 41.0606C105.539 41.2816 104.766 41.4006 104.015 41.4146H98.6338V32.5146H103.855C104.694 32.5296 105.523 32.6336 106.321 32.8256C107.055 33.0006 107.707 33.2756 108.257 33.6396C108.772 33.9806 109.172 34.4076 109.481 34.9436C109.776 35.4576 109.926 36.1166 109.926 36.9016C109.926 37.6256 109.778 38.2286 109.475 38.7466ZM116.51 46.8106C115.796 45.9486 114.935 45.2026 113.951 44.5936C113.83 44.5196 113.708 44.4476 113.584 44.3766C114.369 43.8526 115.067 43.2356 115.662 42.5406C116.298 41.7976 116.803 40.9506 117.166 40.0256C117.531 39.0946 117.726 38.0596 117.747 36.9396C117.767 34.9976 117.36 33.2886 116.536 31.8586C115.726 30.4526 114.625 29.2806 113.265 28.3716C111.946 27.4926 110.427 26.8356 108.749 26.4176C107.124 26.0136 105.439 25.7996 103.724 25.7816H92.2608C91.4608 25.7816 90.8118 26.3986 90.8118 27.1596V63.8106C90.8118 64.5716 91.4608 65.1886 92.2608 65.1886H104.613C106.391 65.1706 108.142 64.9026 109.817 64.3936C111.518 63.8756 113.046 63.1176 114.359 62.1386C115.703 61.1376 116.789 59.8786 117.587 58.3976C118.398 56.8956 118.799 55.1546 118.779 53.2376C118.779 51.9976 118.578 50.8206 118.183 49.7396C117.788 48.6596 117.225 47.6746 116.51 46.8106Z" fill="#3E474A"/>
<path fill-rule="evenodd" clip-rule="evenodd" d="M139.996 48.8911H133.668L136.857 39.0641L139.996 48.8911ZM140.313 26.7421C140.122 26.1701 139.564 25.7821 138.932 25.7821H134.829C134.2 25.7821 133.644 26.1671 133.451 26.7361L121.008 63.3881C120.866 63.8071 120.943 64.2651 121.216 64.6221C121.489 64.9781 121.924 65.1881 122.387 65.1881H127.285C127.919 65.1881 128.48 64.7951 128.668 64.2191L131.449 55.6971H142.174L144.906 64.2131C145.092 64.7931 145.655 65.1881 146.292 65.1881H151.163C151.625 65.1881 152.059 64.9791 152.332 64.6241C152.605 64.2701 152.683 63.8131 152.543 63.3941L140.313 26.7421Z" fill="#3E474A"/>
<path fill-rule="evenodd" clip-rule="evenodd" d="M181.975 48.2269C181.32 47.3869 180.547 46.6279 179.674 45.9679C178.835 45.3319 177.92 44.7559 176.955 44.2519C176.008 43.7579 175.007 43.3139 173.979 42.9299C172.991 42.5639 171.99 42.2279 170.99 41.9279C170.142 41.6809 169.234 41.3909 168.291 41.0669C167.416 40.7679 166.594 40.3889 165.847 39.9399C165.171 39.5339 164.609 39.0349 164.175 38.4559C163.799 37.9539 163.609 37.3309 163.597 36.5739C163.597 35.8229 163.744 35.1959 164.048 34.6539C164.366 34.0889 164.78 33.6259 165.314 33.2409C165.867 32.8409 166.513 32.5349 167.233 32.3319C168.917 31.8549 170.806 31.9259 172.171 32.4329C172.91 32.7069 173.554 33.0949 174.082 33.5829C174.618 34.0789 175.056 34.6859 175.385 35.3859C175.731 36.1229 175.969 36.9629 176.092 37.8809C176.183 38.5679 176.799 39.0839 177.529 39.0839H182.558C182.948 39.0839 183.321 38.9359 183.593 38.6709C183.866 38.4069 184.015 38.0489 184.007 37.6789C183.967 35.8009 183.532 34.0669 182.713 32.5269C181.903 31.0079 180.81 29.6939 179.466 28.6209C178.14 27.5639 176.601 26.7339 174.892 26.1509C171.649 25.0479 168.045 24.9889 164.602 26.0079C162.946 26.4989 161.442 27.2299 160.132 28.1779C158.796 29.1439 157.7 30.3459 156.874 31.7469C156.022 33.1909 155.59 34.8399 155.59 36.6499C155.59 38.4719 156.029 40.0939 156.894 41.4719C157.715 42.7789 158.787 43.9279 160.08 44.8849C161.325 45.8079 162.72 46.5949 164.225 47.2249C165.67 47.8299 167.11 48.3539 168.508 48.7849C169.426 49.0659 170.383 49.3779 171.379 49.7239C172.284 50.0389 173.124 50.4359 173.874 50.9039C174.562 51.3329 175.108 51.8439 175.54 52.4639C175.921 53.0119 176.106 53.6929 176.106 54.5479C176.106 55.3079 175.948 55.9289 175.623 56.4459C175.268 57.0109 174.824 57.4649 174.267 57.8339C173.687 58.2159 173.012 58.5039 172.256 58.6879C170.444 59.1319 168.473 59.0619 166.919 58.5849C166.086 58.3299 165.344 57.9489 164.714 57.4519C164.086 56.9569 163.564 56.3409 163.161 55.6229C162.751 54.8929 162.475 54.0289 162.34 53.0579C162.245 52.3729 161.63 51.8609 160.904 51.8609H155.901C155.509 51.8609 155.134 52.0109 154.862 52.2779C154.589 52.5449 154.441 52.9059 154.452 53.2779C154.512 55.2409 155.011 57.0269 155.936 58.5859C156.839 60.1089 158.031 61.4159 159.478 62.4729C160.899 63.5129 162.53 64.3199 164.324 64.8709C166.101 65.4159 167.943 65.6919 169.799 65.6919C171.459 65.6919 173.141 65.4669 174.797 65.0239C176.483 64.5729 178.021 63.8869 179.367 62.9869C180.747 62.0639 181.888 60.8939 182.757 59.5069C183.657 58.0719 184.113 56.3849 184.113 54.4969C184.113 53.2599 183.921 52.1039 183.543 51.0629C183.169 50.0359 182.642 49.0819 181.975 48.2269Z" fill="#3E474A"/>
<path fill-rule="evenodd" clip-rule="evenodd" d="M214.087 25.782H209.454C208.654 25.782 208.005 26.398 208.005 27.159V41.54H195.099V27.159C195.099 26.398 194.451 25.782 193.651 25.782H189.044C188.244 25.782 187.595 26.398 187.595 27.159V63.811C187.595 64.572 188.244 65.188 189.044 65.188H193.651C194.451 65.188 195.099 64.572 195.099 63.811V48.247H208.005V63.811C208.005 64.572 208.654 65.188 209.454 65.188H214.087C214.887 65.188 215.536 64.572 215.536 63.811V27.159C215.536 26.398 214.887 25.782 214.087 25.782Z" fill="#3E474A"/>
<path fill-rule="evenodd" clip-rule="evenodd" d="M95.2425 71.5411H93.4895V76.2311H92.5525V71.5411H90.8115V70.8021H95.2425V71.5411Z" fill="#3E474A"/>
<path fill-rule="evenodd" clip-rule="evenodd" d="M100.639 76.2311H99.7224V73.8081H97.7814V76.2311H96.8674V70.8021H97.7814V73.0731H99.7224V70.8021H100.639V76.2311Z" fill="#3E474A"/>
<path fill-rule="evenodd" clip-rule="evenodd" d="M106.029 73.7967H103.68V75.5007H106.429V76.2307H102.735V70.8027H106.401V71.5407H103.68V73.0727H106.029V73.7967Z" fill="#3E474A"/>
<path fill-rule="evenodd" clip-rule="evenodd" d="M115.11 73.7706V75.5006H116.137C116.286 75.4986 116.422 75.4766 116.545 75.4356C116.668 75.3946 116.773 75.3376 116.863 75.2656C116.951 75.1936 117.021 75.1056 117.072 75.0006C117.123 74.8966 117.149 74.7806 117.149 74.6506C117.149 74.5136 117.127 74.3916 117.082 74.2836C117.037 74.1746 116.973 74.0836 116.89 74.0086C116.806 73.9346 116.704 73.8766 116.584 73.8356C116.464 73.7946 116.329 73.7736 116.18 73.7706H115.11ZM115.11 73.0876H116.012C116.153 73.0856 116.284 73.0676 116.406 73.0336C116.527 73.0006 116.632 72.9506 116.721 72.8846C116.81 72.8196 116.881 72.7386 116.933 72.6426C116.985 72.5466 117.011 72.4366 117.011 72.3136C117.011 72.1766 116.987 72.0596 116.937 71.9616C116.887 71.8656 116.817 71.7856 116.727 71.7236C116.637 71.6626 116.531 71.6166 116.408 71.5876C116.285 71.5586 116.15 71.5436 116.004 71.5406H115.11V73.0876ZM114.165 76.2316V70.8026H115.988C116.263 70.8056 116.519 70.8356 116.758 70.8926C116.998 70.9496 117.207 71.0386 117.386 71.1576C117.565 71.2766 117.705 71.4286 117.807 71.6136C117.909 71.7986 117.959 72.0186 117.956 72.2726C117.954 72.5406 117.875 72.7696 117.721 72.9596C117.567 73.1506 117.359 73.2976 117.098 73.4016C117.257 73.4436 117.399 73.5046 117.523 73.5826C117.647 73.6606 117.751 73.7546 117.835 73.8636C117.918 73.9736 117.983 74.0946 118.027 74.2266C118.071 74.3606 118.094 74.5016 118.094 74.6506C118.094 74.9086 118.044 75.1366 117.944 75.3326C117.845 75.5286 117.707 75.6926 117.531 75.8246C117.354 75.9566 117.145 76.0566 116.904 76.1246C116.662 76.1936 116.401 76.2296 116.121 76.2316H114.165Z" fill="#3E474A"/>
<path fill-rule="evenodd" clip-rule="evenodd" d="M122.835 73.1671C122.833 72.9631 122.813 72.7601 122.776 72.5591C122.74 72.3581 122.678 72.1781 122.592 72.0211C122.505 71.8621 122.391 71.7351 122.249 71.6361C122.106 71.5381 121.928 71.4891 121.714 71.4891C121.502 71.4891 121.326 71.5381 121.186 71.6361C121.047 71.7351 120.935 71.8631 120.853 72.0221C120.77 72.1811 120.713 72.3601 120.68 72.5611C120.648 72.7611 120.63 72.9631 120.627 73.1671V73.8671C120.63 74.0711 120.649 74.2731 120.682 74.4741C120.717 74.6741 120.774 74.8541 120.857 75.0141C120.939 75.1741 121.051 75.3041 121.19 75.4041C121.33 75.5031 121.506 75.5531 121.718 75.5531C121.932 75.5531 122.11 75.5031 122.253 75.4041C122.395 75.3041 122.509 75.1751 122.596 75.0161C122.682 74.8561 122.743 74.6771 122.778 74.4751C122.813 74.2741 122.833 74.0711 122.835 73.8671V73.1671ZM123.78 73.8671C123.78 74.1881 123.737 74.4961 123.65 74.7901C123.564 75.0851 123.435 75.3441 123.264 75.5701C123.093 75.7941 122.879 75.9731 122.621 76.1061C122.364 76.2391 122.063 76.3051 121.718 76.3051C121.375 76.3051 121.077 76.2381 120.824 76.1041C120.57 75.9701 120.359 75.7901 120.19 75.5661C120.022 75.3411 119.895 75.0821 119.81 74.7881C119.725 74.4951 119.683 74.1881 119.683 73.8671V73.1741C119.683 72.9601 119.701 72.7521 119.74 72.5481C119.777 72.3441 119.834 72.1521 119.908 71.9711C119.983 71.7911 120.076 71.6251 120.186 71.4721C120.297 71.3191 120.428 71.1881 120.578 71.0791C120.729 70.9691 120.899 70.8831 121.088 70.8211C121.278 70.7601 121.486 70.7281 121.714 70.7281C122.059 70.7281 122.36 70.7951 122.618 70.9301C122.875 71.0641 123.09 71.2441 123.263 71.4681C123.435 71.6941 123.564 71.9541 123.65 72.2501C123.737 72.5451 123.78 72.8531 123.78 73.1741V73.8671Z" fill="#3E474A"/>
<path fill-rule="evenodd" clip-rule="evenodd" d="M129.366 70.8025L129.374 74.4385C129.371 74.7165 129.324 74.9715 129.233 75.2005C129.141 75.4305 129.013 75.6275 128.848 75.7915C128.684 75.9555 128.485 76.0825 128.25 76.1715C128.017 76.2605 127.755 76.3055 127.465 76.3055C127.182 76.3055 126.926 76.2605 126.696 76.1715C126.466 76.0825 126.269 75.9565 126.104 75.7935C125.939 75.6305 125.811 75.4335 125.72 75.2035C125.628 74.9745 125.581 74.7185 125.579 74.4385L125.587 70.8025H126.512L126.519 74.4385C126.522 74.6045 126.544 74.7575 126.586 74.8965C126.628 75.0365 126.688 75.1555 126.767 75.2555C126.845 75.3565 126.942 75.4355 127.059 75.4915C127.175 75.5475 127.31 75.5755 127.465 75.5755C127.621 75.5755 127.76 75.5475 127.88 75.4915C128 75.4355 128.101 75.3565 128.182 75.2555C128.263 75.1555 128.324 75.0365 128.367 74.8965C128.408 74.7575 128.43 74.6045 128.433 74.4385L128.441 70.8025H129.366Z" fill="#3E474A"/>
<path fill-rule="evenodd" clip-rule="evenodd" d="M132.352 73.3906H133.218C133.375 73.3906 133.519 73.3696 133.65 73.3276C133.78 73.2846 133.893 73.2246 133.989 73.1466C134.084 73.0676 134.158 72.9726 134.21 72.8586C134.262 72.7466 134.289 72.6156 134.289 72.4696C134.289 72.3176 134.264 72.1836 134.214 72.0676C134.164 71.9496 134.093 71.8516 134 71.7716C133.908 71.6926 133.795 71.6326 133.661 71.5916C133.528 71.5506 133.379 71.5286 133.214 71.5266H132.352V73.3906ZM133.308 74.1136H132.352V76.2306H131.411V70.8026H133.214C133.507 70.8056 133.777 70.8406 134.024 70.9096C134.271 70.9776 134.485 71.0796 134.665 71.2146C134.846 71.3506 134.985 71.5196 135.084 71.7236C135.184 71.9276 135.233 72.1656 135.233 72.4396C135.233 72.6236 135.208 72.7906 135.157 72.9406C135.106 73.0916 135.035 73.2276 134.943 73.3496C134.852 73.4706 134.742 73.5776 134.614 73.6696C134.486 73.7626 134.345 73.8406 134.191 73.9046L135.398 76.1866V76.2306H134.395L133.308 74.1136Z" fill="#3E474A"/>
<path fill-rule="evenodd" clip-rule="evenodd" d="M140.83 76.2311H139.881L138.023 72.4961L138.019 76.2311H137.066V70.8021H138.019L139.87 74.5281L139.878 70.8021H140.83V76.2311Z" fill="#3E474A"/>
<path fill-rule="evenodd" clip-rule="evenodd" d="M146.224 73.7967H143.875V75.5007H146.624V76.2307H142.93V70.8027H146.596V71.5407H143.875V73.0727H146.224V73.7967Z" fill="#3E474A"/>
<path fill-rule="evenodd" clip-rule="evenodd" d="M149.014 74.21H152.154V73.491H149.014V74.21Z" fill="#3E474A"/>
<path fill-rule="evenodd" clip-rule="evenodd" d="M155.586 74.2065H156.895L156.249 72.0785L155.586 74.2065ZM157.131 74.9715H155.347L154.955 76.2315H153.982L155.837 70.8025H156.664L158.484 76.2315H157.515L157.131 74.9715Z" fill="#3E474A"/>
<path fill-rule="evenodd" clip-rule="evenodd" d="M163.936 75.5531C163.84 75.6621 163.726 75.7631 163.595 75.8551C163.464 75.9471 163.318 76.0261 163.156 76.0931C162.994 76.1601 162.818 76.2121 162.629 76.2501C162.439 76.2871 162.237 76.3051 162.023 76.3051C161.68 76.3051 161.377 76.2421 161.113 76.1151C160.849 75.9891 160.626 75.8161 160.445 75.5961C160.263 75.3751 160.125 75.1161 160.029 74.8181C159.934 74.5201 159.885 74.1991 159.882 73.8561V73.1861C159.882 72.8421 159.929 72.5221 160.023 72.2241C160.117 71.9251 160.252 71.6661 160.429 71.4441C160.606 71.2221 160.822 71.0481 161.078 70.9211C161.334 70.7921 161.627 70.7281 161.956 70.7281C162.251 70.7281 162.515 70.7671 162.748 70.8431C162.981 70.9211 163.181 71.0321 163.348 71.1781C163.515 71.3231 163.648 71.5001 163.746 71.7091C163.844 71.9171 163.906 72.1511 163.932 72.4101H163.007C162.984 72.2631 162.947 72.1311 162.897 72.0151C162.847 71.8981 162.781 71.7981 162.697 71.7161C162.613 71.6341 162.512 71.5721 162.393 71.5281C162.274 71.4841 162.134 71.4631 161.972 71.4631C161.773 71.4631 161.603 71.5091 161.46 71.6021C161.318 71.6961 161.2 71.8211 161.106 71.9791C161.012 72.1371 160.942 72.3201 160.897 72.5271C160.853 72.7351 160.829 72.9521 160.827 73.1781V73.8561C160.829 74.0821 160.854 74.2991 160.899 74.5051C160.945 74.7111 161.017 74.8941 161.115 75.0511C161.213 75.2091 161.339 75.3351 161.493 75.4301C161.648 75.5241 161.833 75.5731 162.05 75.5751C162.139 75.5751 162.231 75.5701 162.325 75.5591C162.419 75.5471 162.509 75.5291 162.593 75.5051C162.678 75.4791 162.756 75.4481 162.827 75.4101C162.897 75.3701 162.955 75.3231 162.999 75.2651L163.007 74.1801H161.976V73.4841H163.928L163.936 75.5531Z" fill="#3E474A"/>
<path fill-rule="evenodd" clip-rule="evenodd" d="M167.071 74.2065H168.38L167.734 72.0785L167.071 74.2065ZM168.616 74.9715H166.832L166.44 76.2315H165.467L167.322 70.8025H168.149L169.969 76.2315H169L168.616 74.9715Z" fill="#3E474A"/>
<path fill-rule="evenodd" clip-rule="evenodd" d="M171.715 70.8025H175.111V71.5445H173.876V75.4935H175.111V76.2315H171.715V75.4935H172.923V71.5445H171.715V70.8025Z" fill="#3E474A"/>
<path fill-rule="evenodd" clip-rule="evenodd" d="M181.025 76.2311H180.076L178.218 72.4961L178.214 76.2311H177.261V70.8021H178.214L180.065 74.5281L180.073 70.8021H181.025V76.2311Z" fill="#3E474A"/>
<path fill-rule="evenodd" clip-rule="evenodd" d="M191.78 74.8332C191.78 74.7042 191.752 74.5902 191.696 74.4922C191.639 74.3932 191.56 74.3082 191.456 74.2322C191.353 74.1582 191.231 74.0932 191.088 74.0372C190.946 73.9812 190.791 73.9302 190.623 73.8822C190.399 73.8202 190.177 73.7432 189.959 73.6512C189.74 73.5592 189.546 73.4462 189.375 73.3142C189.203 73.1812 189.065 73.0252 188.959 72.8472C188.853 72.6702 188.8 72.4652 188.8 72.2312C188.8 71.9972 188.853 71.7882 188.959 71.6022C189.065 71.4172 189.207 71.2612 189.384 71.1312C189.562 71.0022 189.769 70.9022 190.004 70.8322C190.239 70.7632 190.485 70.7282 190.741 70.7282C191.016 70.7282 191.272 70.7692 191.512 70.8492C191.751 70.9302 191.96 71.0442 192.139 71.1892C192.318 71.3342 192.46 71.5082 192.564 71.7102C192.669 71.9132 192.722 72.1382 192.725 72.3842H191.784C191.771 72.2472 191.74 72.1222 191.692 72.0092C191.643 71.8962 191.575 71.7982 191.488 71.7162C191.4 71.6342 191.294 71.5712 191.168 71.5262C191.043 71.4812 190.898 71.4592 190.733 71.4592C190.592 71.4592 190.461 71.4772 190.341 71.5112C190.221 71.5452 190.117 71.5972 190.029 71.6642C189.942 71.7312 189.873 71.8122 189.824 71.9062C189.774 72.0012 189.749 72.1082 189.749 72.2272C189.749 72.3542 189.783 72.4642 189.851 72.5572C189.919 72.6502 190.008 72.7322 190.117 72.8012C190.227 72.8712 190.354 72.9312 190.496 72.9822C190.639 73.0332 190.787 73.0792 190.941 73.1212C191.179 73.1892 191.406 73.2712 191.623 73.3702C191.84 73.4682 192.031 73.5862 192.196 73.7242C192.36 73.8622 192.491 74.0222 192.588 74.2032C192.684 74.3842 192.733 74.5922 192.733 74.8262C192.733 75.0672 192.679 75.2792 192.572 75.4632C192.465 75.6472 192.321 75.8022 192.141 75.9252C191.96 76.0492 191.751 76.1432 191.514 76.2072C191.276 76.2702 191.027 76.3022 190.768 76.3022C190.593 76.3022 190.42 76.2862 190.247 76.2532C190.074 76.2222 189.909 76.1732 189.751 76.1082C189.593 76.0442 189.446 75.9642 189.31 75.8682C189.174 75.7722 189.056 75.6612 188.955 75.5362C188.855 75.4102 188.775 75.2702 188.718 75.1142C188.66 74.9592 188.63 74.7882 188.628 74.6022H189.572C189.586 74.7662 189.623 74.9082 189.686 75.0302C189.749 75.1522 189.832 75.2542 189.937 75.3342C190.042 75.4152 190.164 75.4772 190.304 75.5182C190.444 75.5582 190.598 75.5792 190.768 75.5792C190.91 75.5792 191.042 75.5622 191.164 75.5312C191.287 75.4982 191.395 75.4502 191.486 75.3872C191.577 75.3232 191.649 75.2452 191.702 75.1512C191.754 75.0582 191.78 74.9522 191.78 74.8332Z" fill="#3E474A"/>
<path fill-rule="evenodd" clip-rule="evenodd" d="M198.255 76.2311H197.338V73.8081H195.397V76.2311H194.483V70.8021H195.397V73.0731H197.338V70.8021H198.255V76.2311Z" fill="#3E474A"/>
<path fill-rule="evenodd" clip-rule="evenodd" d="M203.645 73.7967H201.296V75.5007H204.045V76.2307H200.351V70.8027H204.017V71.5407H201.296V73.0727H203.645V73.7967Z" fill="#3E474A"/>
<path fill-rule="evenodd" clip-rule="evenodd" d="M207.073 75.501H209.794V76.231H206.132V70.803H207.073V75.501Z" fill="#3E474A"/>
<path fill-rule="evenodd" clip-rule="evenodd" d="M212.816 75.501H215.537V76.231H211.875V70.803H212.816V75.501Z" fill="#3E474A"/>
</svg>
