<svg width="111" height="109" viewBox="0 0 111 109" fill="none" xmlns="http://www.w3.org/2000/svg">
<path fill-rule="evenodd" clip-rule="evenodd" d="M55.5 0C24.8363 0 0 25.0056 0 55.8785C0 80.6048 15.8869 101.489 37.9481 108.893C40.7231 109.382 41.7637 107.706 41.7637 106.239C41.7637 104.912 41.6944 100.511 41.6944 95.8316C27.75 98.416 24.1425 92.4091 23.0325 89.2659C22.4081 87.6594 19.7025 82.7002 17.3438 81.3731C15.4012 80.3254 12.6263 77.741 17.2744 77.6711C21.645 77.6013 24.7669 81.7223 25.8075 83.3987C30.8025 91.8503 38.7806 89.4755 41.9719 88.0087C42.4575 84.3766 43.9144 81.9319 45.51 80.5349C33.1613 79.1379 20.2575 74.3184 20.2575 52.9449C20.2575 46.8681 22.4081 41.839 25.9463 37.9275C25.3913 36.5306 23.4487 30.803 26.5012 23.1197C26.5012 23.1197 31.1494 21.6529 41.7637 28.8473C46.2038 27.59 50.9213 26.9614 55.6388 26.9614C60.3563 26.9614 65.0738 27.59 69.5138 28.8473C80.1281 21.5831 84.7763 23.1197 84.7763 23.1197C87.8288 30.803 85.8863 36.5306 85.3313 37.9275C88.8694 41.839 91.02 46.7983 91.02 52.9449C91.02 74.3883 78.0469 79.1379 65.6981 80.5349C67.71 82.2811 69.4444 85.6338 69.4444 90.8724C69.4444 98.3462 69.375 104.353 69.375 106.239C69.375 107.706 70.4156 109.452 73.1906 108.893C95.1131 101.489 111 80.5349 111 55.8785C111 25.0056 86.1637 0 55.5 0Z" fill="#1B1F23"/>
</svg>
