<svg width="474" height="434" viewBox="0 0 474 434" fill="none" xmlns="http://www.w3.org/2000/svg">
<ellipse cx="240.5" cy="74" rx="54.5" ry="74" fill="#FFEEB4"/>
<rect x="158" y="179" width="162" height="242" rx="46" fill="black"/>
<rect x="174" y="185" width="132" height="199" rx="38" fill="#5B72EB"/>
<rect x="227" y="138" width="27" height="57" fill="#FFEEB4"/>
<path d="M240.501 225L227.077 194.25H253.924L240.501 225Z" fill="#FFEEB4"/>
<path d="M176.996 212.51C177.412 211.82 177.787 211.597 178.044 211.484C178.39 211.332 178.905 211.236 179.513 211.328C180.121 211.42 180.584 211.665 180.869 211.913C181.081 212.097 181.373 212.421 181.565 213.203L206.756 315.682C207.184 317.426 205.689 319.04 203.917 318.745L124.911 305.577C123.17 305.287 122.269 303.333 123.18 301.821L176.996 212.51Z" stroke="#5B72EB" stroke-width="35"/>
<path d="M300.004 210.51C299.588 209.82 299.213 209.597 298.956 209.484C298.61 209.332 298.095 209.236 297.487 209.328C296.879 209.42 296.416 209.665 296.131 209.913C295.919 210.097 295.627 210.421 295.435 211.203L270.244 313.682C269.816 315.426 271.311 317.04 273.083 316.745L352.089 303.577C353.83 303.287 354.731 301.333 353.82 299.821L300.004 210.51Z" stroke="#5B72EB" stroke-width="35"/>
<rect x="165" y="230" width="150" height="96" rx="10" fill="#BDBDBD"/>
<rect x="18" y="338" width="434" height="96" fill="#7B770A"/>
<g filter="url(#filter0_d)">
<line x1="10" y1="333" x2="464" y2="333" stroke="#302E05" stroke-width="12" stroke-linecap="square"/>
</g>
<path d="M214 124C214 120.686 216.686 118 220 118H262C265.314 118 268 120.686 268 124V126C268 134.837 260.837 142 252 142H230C221.163 142 214 134.837 214 126V124Z" stroke="#8F7C5E" stroke-width="8"/>
<ellipse cx="186.5" cy="75" rx="5.5" ry="14" fill="#FFEEB4"/>
<ellipse cx="294.5" cy="74" rx="5.5" ry="14" fill="#FFEEB4"/>
<rect x="192" y="62" width="40" height="16" rx="4" stroke="black" stroke-width="4"/>
<rect x="249" y="62" width="40" height="16" rx="4" stroke="black" stroke-width="4"/>
<line x1="232.982" y1="65.5" x2="247.018" y2="65.5" stroke="black" stroke-width="4"/>
<defs>
<filter id="filter0_d" x="0" y="327" width="474" height="20" filterUnits="userSpaceOnUse" color-interpolation-filters="sRGB">
<feFlood flood-opacity="0" result="BackgroundImageFix"/>
<feColorMatrix in="SourceAlpha" type="matrix" values="0 0 0 0 0 0 0 0 0 0 0 0 0 0 0 0 0 0 127 0"/>
<feOffset dy="4"/>
<feGaussianBlur stdDeviation="2"/>
<feColorMatrix type="matrix" values="0 0 0 0 0 0 0 0 0 0 0 0 0 0 0 0 0 0 0.25 0"/>
<feBlend mode="normal" in2="BackgroundImageFix" result="effect1_dropShadow"/>
<feBlend mode="normal" in="SourceGraphic" in2="effect1_dropShadow" result="shape"/>
</filter>
</defs>
</svg>
