<svg width="156" height="138" viewBox="0 0 156 138" fill="none" xmlns="http://www.w3.org/2000/svg">
<ellipse cx="78.9056" cy="23.4377" rx="17.2616" ry="23.4377" fill="#FFEEB4"/>
<rect x="52.7759" y="56.694" width="51.3097" height="76.6478" rx="25.6548" fill="black"/>
<rect x="74.6304" y="43.7082" width="8.55161" height="18.0534" fill="#FFEEB4"/>
<path d="M78.9062 71.2634L74.6546 61.524H83.1577L78.9062 71.2634Z" fill="#FFEEB4"/>
<rect x="57.8433" y="58.5944" width="41.8079" height="63.0285" rx="20.9039" fill="#0029FF"/>
<path d="M56.5764 87.0423C57.699 87.2294 58.4958 88.0613 58.7407 89.0475C58.9033 89.7022 58.8227 90.425 58.4328 91.0721C58.2518 91.3725 57.8063 91.8348 57.1496 92.1234C56.5822 92.3728 56.091 92.3939 55.733 92.3396C55.7203 92.3377 55.7075 92.3356 55.6946 92.3334C55.3422 92.2732 54.8957 92.1049 54.4444 91.7128C53.9029 91.2423 53.6146 90.6686 53.5309 90.3281C53.3502 89.593 53.4882 88.8794 53.8375 88.3032C54.3774 87.4126 55.4224 86.8499 56.5764 87.0423Z" stroke="#0029FF" stroke-width="35"/>
<path d="M99.9675 86.4088C98.8449 86.5959 98.0482 87.4278 97.8032 88.414C97.6406 89.0688 97.7212 89.7915 98.1112 90.4387C98.2921 90.739 98.7376 91.2013 99.3943 91.4899C99.9618 91.7393 100.453 91.7605 100.811 91.7061C100.824 91.7042 100.836 91.7022 100.849 91.6999C101.202 91.6398 101.648 91.4714 102.1 91.0793C102.641 90.6088 102.929 90.0351 103.013 89.6946C103.194 88.9595 103.056 88.246 102.706 87.6697C102.167 86.7791 101.122 86.2165 99.9675 86.4088Z" stroke="#0029FF" stroke-width="35"/>
<rect x="54.9932" y="72.8471" width="47.509" height="30.4057" rx="10" fill="#BDBDBD"/>
<rect x="8.43457" y="107.053" width="137.459" height="30.4057" fill="#7B770A"/>
<g filter="url(#filter0_d)">
<line x1="10" y1="101.37" x2="145.594" y2="101.37" stroke="#302E05" stroke-width="12" stroke-linecap="square"/>
</g>
<path d="M76.0029 42.2421C74.6941 42.2421 73.5983 41.33 73.3165 40.1068H84.8128C84.5309 41.33 83.4351 42.2421 82.1263 42.2421H76.0029Z" stroke="#8F7C5E" stroke-width="5.06762"/>
<ellipse cx="61.8025" cy="23.7545" rx="1.74199" ry="4.43417" fill="#FFEEB4"/>
<ellipse cx="96.0091" cy="23.4378" rx="1.74199" ry="4.43417" fill="#FFEEB4"/>
<rect x="63.4111" y="19.5036" width="12.936" height="5.33453" rx="2.66726" stroke="black"/>
<rect x="81.4644" y="19.5036" width="12.936" height="5.33453" rx="2.66726" stroke="black"/>
<line x1="76.5249" y1="20.879" x2="80.9704" y2="20.879" stroke="black"/>
<g clip-path="url(#clip0)">
<path d="M77.8936 84.9298L77.9465 84.9202L78.0656 84.9099C78.1902 84.8985 78.3151 84.894 78.4404 84.8938L78.5154 84.8896H79.018L79.0842 84.8938L79.2209 84.898L79.265 84.9018L79.3973 84.9102C79.4911 84.9165 79.5867 84.9259 79.6795 84.9418L79.7544 84.9593L79.825 84.9733L79.8559 84.9838L79.9264 85.0021L79.9661 85.017L80.0851 85.0599C80.1737 85.0978 80.261 85.1434 80.3409 85.196C80.4203 85.2484 80.4895 85.3024 80.5575 85.3678C80.6537 85.4602 80.7367 85.566 80.8025 85.68C80.882 85.8176 80.9353 85.9673 80.9645 86.1215L80.9764 86.1807C81.0301 86.5598 80.9465 86.9414 80.7303 87.2651L80.6735 87.3408C80.5799 87.4651 80.4618 87.5803 80.3321 87.6709C80.1333 87.8097 79.9288 87.8978 79.6927 87.9618L79.6001 87.9807L79.5428 87.9949C79.4161 88.0172 79.2872 88.0265 79.1591 88.0349C79.0285 88.0434 78.8978 88.0513 78.7667 88.0513L78.9544 88.2616L79.4306 88.7955L80.2767 89.7457L80.6854 90.204L80.8689 90.4099L80.9715 90.5278C80.9321 90.5377 80.8927 90.5381 80.8524 90.5407L80.7642 90.5446L80.6937 90.5488H80.1954L80.1425 90.5447H80.0807L80.0278 90.5404C80.006 90.5399 79.9396 90.5364 79.9227 90.5271C79.9096 90.5198 79.8838 90.4895 79.8731 90.4773L79.7841 90.3764L79.4766 90.0316L79.1396 89.6532L78.5157 88.9552L78.2306 88.6358L78.1185 88.5096V89.4388C78.0898 89.4475 78.0986 89.4631 78.0933 89.5019C78.0846 89.5655 78.0748 89.6166 78.0561 89.6785C78.0158 89.8125 77.937 89.9277 77.8275 90.0196C77.8023 90.0408 77.7773 90.0619 77.7481 90.0779V88.6484V87.9336L77.7569 87.8705V84.9653L77.7349 84.9611V84.9527L77.8936 84.9298ZM78.4624 87.9841C78.5127 87.984 78.5472 87.9741 78.5947 87.9632L78.6785 87.9456L78.8152 87.9031C79.2247 87.7713 79.5809 87.4814 79.7702 87.1095C79.8299 86.9923 79.8748 86.8711 79.9029 86.7437L79.9245 86.6428L79.9314 86.5798L79.9384 86.5293L79.9426 86.3696L79.9281 86.1887L79.9096 86.1005C79.8722 85.921 79.8026 85.7502 79.6985 85.5959C79.6206 85.4805 79.5284 85.3831 79.4205 85.2928C79.3251 85.2128 79.1997 85.1372 79.0842 85.0871L78.8725 85.0084L78.7535 84.9777L78.727 84.9714L78.6168 84.978H78.555L78.5021 84.9821H78.1273V87.9841H78.4624Z" fill="#86BA90" stroke="black" stroke-width="0.00333333"/>
<g clip-path="url(#clip1)">
<path d="M77.9707 84.9298L78.0224 84.9202C78.092 84.9111 78.2673 84.8981 78.3368 84.898L78.41 84.8938H78.5048L78.578 84.8896H79.069L79.1336 84.8938L79.2671 84.898L79.3102 84.9018L79.4394 84.9102C79.5261 84.9162 79.6342 84.927 79.7193 84.9426L79.7883 84.9593L79.8572 84.9733L79.8873 84.9838L79.9562 85.0021L79.995 85.017L80.1113 85.0599C80.2482 85.1199 80.3797 85.1989 80.4934 85.2948C80.5819 85.3694 80.6719 85.4677 80.7372 85.5623C81.1311 86.1327 81.0675 86.8951 80.6235 87.4207C80.554 87.5029 80.4649 87.5864 80.3783 87.6514C80.1799 87.8005 79.9677 87.8953 79.728 87.9618L79.6332 87.9817L79.5858 87.9941C79.49 88.0127 79.3693 88.0241 79.2714 88.0307L79.1422 88.0391L79.0905 88.0429L78.9656 88.0471L78.8967 88.0513H78.3153L78.242 88.0471L78.0181 88.0349C77.9526 88.0305 77.8652 88.0296 77.8027 88.0135V88.0051L77.8328 87.9912L77.8372 87.9588V87.8327V87.2861V84.9653L77.8157 84.9611V84.9527L77.9707 84.9298ZM78.5263 87.9841C78.5755 87.984 78.6091 87.9741 78.6555 87.9632L78.7374 87.9456L78.8709 87.9031C79.2708 87.7713 79.6187 87.4814 79.8037 87.1095C79.862 86.9923 79.9058 86.8711 79.9332 86.7437L79.9544 86.6428L79.9611 86.5798L79.9679 86.5293L79.972 86.3696L79.9579 86.1887L79.9399 86.1005C79.9033 85.921 79.8353 85.7502 79.7336 85.5959C79.6575 85.4805 79.5675 85.3831 79.4621 85.2928C79.3689 85.2128 79.2464 85.1372 79.1336 85.0871L78.9269 85.0084L78.8106 84.9777L78.7847 84.9714L78.6771 84.978H78.6168L78.5651 84.9821H78.199V87.9841H78.5263Z" fill="#FF331F" stroke="black" stroke-width="0.00333333"/>
</g>
</g>
<g clip-path="url(#clip2)">
<path d="M73.818 88.6853L73.9501 88.6807L74.0333 88.6766H74.5813L74.64 88.6806H74.6987L74.7574 88.6845L74.8406 88.6893C74.8574 88.6907 74.8817 88.6916 74.8895 88.7066C74.8956 88.7181 74.8938 88.7383 74.8953 88.7512L74.9063 88.8341L74.9259 88.9627L74.97 89.1658C75.0482 89.49 75.2065 89.8317 75.4532 90.0903C75.5608 90.2031 75.6879 90.3043 75.8339 90.3805C75.8665 90.3975 75.9067 90.42 75.9415 90.4319C75.9583 90.4377 75.9723 90.4435 75.9905 90.4385L76.0247 90.424L76.0687 90.408L76.1519 90.3678C76.2635 90.3109 76.3492 90.2572 76.4453 90.1822C76.7638 89.9336 76.9606 89.6115 77.0405 89.2529C77.0615 89.1589 77.0715 89.0819 77.0779 88.9864L77.0816 88.9378L77.0783 88.7927L77.0727 88.7265C77.0727 88.7056 77.0815 88.7129 77.0824 88.6724V88.4569L77.0881 87.1426L77.0925 87.068V86.3093V86.1684L77.0971 86.0813V85.1775L77.1012 85.1153V84.9702C77.1012 84.962 77.0999 84.9466 77.106 84.9401C77.1159 84.9295 77.1629 84.9282 77.1795 84.9263L77.2333 84.9242L77.3262 84.9205L77.4094 84.9163H77.9672L78.0406 84.9205L78.1972 84.9276C78.2121 84.9291 78.2468 84.9299 78.258 84.9377C78.2677 84.9445 78.2657 84.9604 78.2649 84.9702V85.6957L78.2597 85.7579V86.5581V86.67L78.2551 86.7446V87.2629V87.5033V87.6733L78.2499 87.7313V88.3366V88.6434L78.2461 88.7056V88.9544C78.246 89.0419 78.2301 89.1375 78.2131 89.2238C78.127 89.6614 77.8541 90.0644 77.4192 90.3193L77.3418 90.3592L77.2235 90.418C77.1494 90.4494 77.0677 90.4802 76.9886 90.5012L76.9054 90.5194L76.8516 90.5331L76.6804 90.5558L76.607 90.5664L76.4113 90.5754L76.3379 90.5795H75.6039L75.5305 90.5754H75.4865L75.4375 90.5716L75.369 90.5678L75.232 90.5576C75.1427 90.5484 75.0094 90.5185 74.9238 90.4935L74.8846 90.479C74.8058 90.4512 74.7568 90.431 74.684 90.393C74.2631 90.1733 74.0317 89.8196 73.8856 89.4311C73.8481 89.3313 73.812 89.2151 73.7915 89.1119C73.7835 89.0717 73.7691 89.0328 73.769 88.9917V88.689L73.818 88.6853Z" fill="black" stroke="black" stroke-width="0.00333333"/>
</g>
<defs>
<filter id="filter0_d" x="0" y="95.3702" width="155.594" height="20" filterUnits="userSpaceOnUse" color-interpolation-filters="sRGB">
<feFlood flood-opacity="0" result="BackgroundImageFix"/>
<feColorMatrix in="SourceAlpha" type="matrix" values="0 0 0 0 0 0 0 0 0 0 0 0 0 0 0 0 0 0 127 0"/>
<feOffset dy="4"/>
<feGaussianBlur stdDeviation="2"/>
<feColorMatrix type="matrix" values="0 0 0 0 0 0 0 0 0 0 0 0 0 0 0 0 0 0 0.25 0"/>
<feBlend mode="normal" in2="BackgroundImageFix" result="effect1_dropShadow"/>
<feBlend mode="normal" in="SourceGraphic" in2="effect1_dropShadow" result="shape"/>
</filter>
<clipPath id="clip0">
<rect x="74.1675" y="84.528" width="7.05527" height="6.72712" fill="white"/>
</clipPath>
<clipPath id="clip1">
<rect x="74.3315" y="84.528" width="6.89119" height="6.72712" fill="white"/>
</clipPath>
<clipPath id="clip2">
<rect x="73.769" y="84.5515" width="7.82877" height="6.63336" fill="white"/>
</clipPath>
</defs>
</svg>
