<svg width="167" height="126" viewBox="0 0 167 126" fill="none" xmlns="http://www.w3.org/2000/svg">
<g clip-path="url(#clip0)">
<path d="M143.707 72.4192C137.885 72.4499 132.824 73.8615 128.586 75.9482C127.032 72.8489 125.477 70.0871 125.203 68.0617C124.898 65.6988 124.532 64.2566 124.898 61.4334C125.263 58.6102 126.91 54.5902 126.879 54.2833C126.849 53.9765 126.513 52.5342 123.16 52.5035C119.807 52.4728 116.91 53.1479 116.575 54.0379C116.24 54.9278 115.6 56.9531 115.173 59.0398C114.594 62.1085 108.466 73.0637 104.96 78.8021C103.832 76.562 102.857 74.598 102.643 73.033C102.338 70.6701 101.973 69.2278 102.338 66.4046C102.704 63.5814 104.35 59.5615 104.32 59.2546C104.289 58.9477 103.954 57.5055 100.601 57.4748C97.2472 57.4441 94.3511 58.1192 94.0158 59.0091C93.6804 59.899 93.3146 61.9857 92.6134 64.0111C91.9123 66.0364 83.7726 84.3257 81.6386 89.0515C80.5411 91.4757 79.5961 93.409 78.9254 94.7285C78.9254 94.7285 78.8949 94.8206 78.8035 94.974C78.2242 96.1094 77.8889 96.7232 77.8889 96.7232C77.8889 96.7232 77.8889 96.7232 77.8889 96.7539C77.4316 97.5824 76.9438 98.3496 76.7 98.3496C76.517 98.3496 76.1817 96.1401 76.7609 93.1328C77.9803 86.7807 80.8765 76.8995 80.846 76.562C80.846 76.3778 81.3947 74.6594 78.9559 73.7695C76.578 72.8795 75.7244 74.3525 75.511 74.3525C75.2976 74.3525 75.1452 74.8742 75.1452 74.8742C75.1452 74.8742 77.7974 63.7656 70.0846 63.7656C65.2679 63.7656 58.622 69.0744 55.3296 73.8615C53.2565 74.9969 48.8361 77.4212 44.1109 80.0296C42.3122 81.0422 40.4526 82.0549 38.7149 83.0062C38.593 82.8834 38.471 82.73 38.3491 82.6073C29.0205 72.5727 11.7657 65.484 12.4973 52.0125C12.7717 47.1026 14.4484 34.2142 45.6351 18.5639C71.304 5.8289 91.7293 9.35788 95.2657 17.183C100.326 28.353 84.3214 49.0973 57.7989 52.1046C47.6777 53.24 42.3732 49.3121 41.0318 47.8391C39.6295 46.3048 39.4161 46.2127 38.8978 46.5196C38.0442 46.9799 38.593 48.3608 38.8978 49.1587C39.6905 51.2454 42.9524 54.9278 48.4703 56.7383C53.348 58.334 65.2069 59.2239 79.5656 53.6389C95.6315 47.3788 108.192 29.9794 104.503 15.4032C100.814 0.61214 76.4256 -4.26706 53.348 3.98769C39.6295 8.89758 24.7525 16.6306 14.0521 26.6959C1.33959 38.6638 -0.672455 49.0666 0.150655 53.4241C3.10776 68.8903 24.2952 78.9555 32.7702 86.4124C32.3434 86.6579 31.9471 86.8727 31.6118 87.0568C27.3743 89.1742 11.2169 97.6745 7.19283 106.666C2.61999 116.854 7.92448 124.157 11.4303 125.139C22.3137 128.177 33.5019 122.715 39.5075 113.693C45.5132 104.671 44.7815 92.9487 42.0074 87.5785C41.9769 87.5171 41.9464 87.4558 41.8854 87.3944C42.9829 86.75 44.1109 86.0749 45.2083 85.4304C47.3728 84.1416 49.5068 82.9448 51.3359 81.9628C50.2994 84.8167 49.5373 88.2229 49.1715 93.1328C48.7142 98.9019 51.0616 106.39 54.1406 109.335C55.5125 110.624 57.1282 110.655 58.1647 110.655C61.762 110.655 63.3778 107.648 65.1764 104.088C67.3714 99.7305 69.3529 94.6672 69.3529 94.6672C69.3529 94.6672 66.8836 108.353 73.5904 108.353C76.0293 108.353 78.4986 105.162 79.5961 103.536C79.5961 103.566 79.5961 103.566 79.5961 103.566C79.5961 103.566 79.6571 103.474 79.779 103.259C80.0229 102.861 80.1753 102.615 80.1753 102.615C80.1753 102.615 80.1753 102.584 80.1753 102.554C81.1508 100.835 83.3458 96.938 86.6078 90.4631C90.8148 82.1163 94.8694 71.6828 94.8694 71.6828C94.8694 71.6828 95.2352 74.2298 96.4851 78.4645C97.2168 80.9502 98.741 83.6813 99.9604 86.3204C98.9849 87.7013 98.3752 88.4684 98.3752 88.4684C98.3752 88.4684 98.3752 88.4684 98.4057 88.4991C97.6131 89.5425 96.7595 90.6779 95.8144 91.7826C92.4915 95.7719 88.5284 100.344 87.9796 101.664C87.3394 103.229 87.4918 104.364 88.7113 105.285C89.5954 105.96 91.1806 106.052 92.7963 105.96C95.7839 105.745 97.8874 105.009 98.9239 104.548C100.54 103.965 102.43 103.075 104.198 101.756C107.46 99.3316 109.441 95.864 109.259 91.2916C109.167 88.7753 108.344 86.259 107.338 83.8961C107.643 83.4665 107.917 83.0369 108.222 82.6073C113.374 75.0276 117.368 66.7115 117.368 66.7115C117.368 66.7115 117.734 69.2585 118.983 73.4933C119.593 75.6414 120.843 77.9735 121.941 80.2444C117.093 84.203 114.106 88.806 113.039 91.8133C111.118 97.3983 112.612 99.9146 115.447 100.498C116.728 100.774 118.557 100.16 119.898 99.5771C121.605 99.0247 123.617 98.0734 125.538 96.6618C128.8 94.2375 131.94 90.862 131.757 86.2897C131.665 84.203 131.117 82.147 130.355 80.1523C134.47 78.4339 139.775 77.4826 146.542 78.2804C161.054 79.9989 163.919 89.1129 163.37 92.9487C162.822 96.7846 159.773 98.8713 158.767 99.5157C157.761 100.16 157.426 100.375 157.517 100.835C157.639 101.51 158.127 101.48 158.981 101.357C160.169 101.142 166.602 98.2575 166.876 91.1996C167.334 82.1776 158.798 72.3272 143.707 72.4192ZM31.7642 110.409C26.9475 115.688 20.2407 117.682 17.3445 115.994C14.235 114.184 15.4544 106.39 21.3686 100.805C24.9659 97.3983 29.5997 94.2375 32.6788 92.3043C33.3799 91.8747 34.4165 91.2609 35.6664 90.4938C35.8798 90.371 36.0017 90.3096 36.0017 90.3096C36.2456 90.1562 36.4895 90.0028 36.7334 89.8493C38.8978 97.8279 36.8248 104.855 31.7642 110.409ZM66.8226 86.4124C65.1459 90.5245 61.6401 101.05 59.5061 100.467C57.6769 99.976 56.549 91.9974 59.1403 84.1109C60.4511 80.1523 63.2253 75.4266 64.8411 73.5853C67.4628 70.6394 70.359 69.6574 71.0601 70.8542C71.9442 72.4192 67.8591 83.8347 66.8226 86.4124ZM95.7534 100.344C95.0523 100.712 94.3816 100.958 94.0767 100.774C93.8633 100.651 94.3816 100.16 94.3816 100.16C94.3816 100.16 98.0094 96.2322 99.4422 94.4524C100.265 93.409 101.241 92.1815 102.277 90.8006C102.277 90.9234 102.277 91.0768 102.277 91.1996C102.277 95.8946 97.7655 99.0554 95.7534 100.344ZM118.069 95.2195C117.551 94.8513 117.642 93.6238 119.38 89.788C120.05 88.2843 121.636 85.768 124.349 83.3437C124.654 84.3257 124.867 85.277 124.837 86.1669C124.806 92.0895 120.599 94.2989 118.069 95.2195Z" fill="#CD6799"/>
</g>
<defs>
<clipPath id="clip0">
<rect width="167" height="126" fill="white"/>
</clipPath>
</defs>
</svg>
